<?xml version="1.0" encoding="utf-8"?>
<!-- Svg Vector Icons : http://www.onlinewebfonts.com/icon -->
<!DOCTYPE svg PUBLIC "-//W3C//DTD SVG 1.1//EN" "http://www.w3.org/Graphics/SVG/1.1/DTD/svg11.dtd">
<svg version="1.1" xmlns="http://www.w3.org/2000/svg" xmlns:xlink="http://www.w3.org/1999/xlink" x="0px" y="0px" viewBox="0 0 1000 1000" enable-background="new 0 0 1000 1000" xml:space="preserve">
<metadata> Svg Vector Icons : http://www.onlinewebfonts.com/icon </metadata>
<g><g transform="translate(0.000000,511.000000) scale(0.100000,-0.100000)"><path d="M238.5,4841.7c-34.6-21.2-78.9-65.4-100-100C100,4678.2,100,4634,100,110c0-4524,0-4568.2,38.5-4631.7c21.2-34.6,65.4-78.9,100-100c63.5-38.5,105.8-38.5,3623.8-38.5h3560.3l65.4,44.2c138.5,90.4,132.7,40.4,128.9,1379.1l-5.8,1198.3l-263.5-282.8L7082.1-2604v-757.9v-759.8H3860.4H638.6V110v4231.6h3221.8h3221.8l3.9-1896.5l5.8-1894.6l265.4,377l263.5,377v1677.2c0,1871.5,7.7,1761.9-132.7,1854.2l-65.4,44.2H3862.3C344.3,4880.2,302,4880.2,238.5,4841.7z"/><path d="M1546.4,3002.9c-38.5-26.9-42.3-46.2-42.3-188.5c0-130.8,5.8-165.4,34.6-190.4c32.7-30.8,221.2-32.7,2313.9-32.7c2031.2,0,2283.1,3.9,2321.6,30.8c38.5,25,42.3,46.2,42.3,182.7c0,257.7,290.4,228.9-2352.4,228.9C1836.9,3033.7,1584.9,3029.8,1546.4,3002.9z"/><path d="M9057.5,2591.3c-105.8-26.9-250-105.8-325.1-177c-48.1-46.2-2452.4-3456.5-2540.9-3604.5c-23.1-38.5-340.4-1506.1-340.4-1573.4c0-76.9,40.4-115.4,98.1-98.1c23.1,7.7,344.3,205.8,711.7,440.5l669.4,425.1L8574.7-218.9c684.8,979,1261.8,1817.7,1284.9,1865.7c30.8,69.2,38.5,128.9,40.4,261.6c0,157.7-5.8,186.6-61.6,300.1c-115.4,232.7-328.9,377-577,392.4C9190.2,2604.7,9097.9,2600.9,9057.5,2591.3z M8803.6,1344.9c126.9-88.5,242.3-171.2,255.8-184.7c17.3-17.3-178.9-311.6-936.7-1394.5c-527-754-965.6-1371.4-973.3-1371.4c-7.7-1.9-134.6,82.7-280.8,184.7l-267.4,186.6l128.9,188.5c977.1,1404.1,1808,2573.6,1823.4,2564C8563.2,1512.2,8676.7,1433.3,8803.6,1344.9z M6826.3-1832.7c42.3-32.7,38.5-34.6-219.3-198.1c-144.3-92.3-265.4-163.5-269.3-159.6c-5.8,3.8,55.8,296.2,119.3,565.5c9.6,42.3,17.3,40.4,169.3-65.4C6712.8-1751.9,6803.2-1815.4,6826.3-1832.7z"/><path d="M1542.6,1648.8c-53.9-53.9-55.8-323.1-3.9-371.2c32.7-30.8,221.2-32.7,2325.5-32.7c2640.9,0,2352.4-26.9,2352.4,217.3c0,252,288.5,225-2356.2,225C1606.1,1687.2,1581.1,1687.2,1542.6,1648.8z"/><path d="M1571.4,317.7c-59.6-34.6-67.3-53.9-67.3-207.7c0-78.9,7.7-153.9,15.4-165.4c42.3-63.5,78.9-65.4,2346.6-65.4c2627.5,0,2350.5-26.9,2350.5,230.8c0,257.7,277,230.8-2354.3,230.8C2219.6,338.9,1600.3,333.1,1571.4,317.7z"/><path d="M1638.8-1021c-113.5-11.6-134.6-46.2-134.6-219.3c0-248.1-113.5-227,1173.3-227c1286.8,0,1173.3-21.2,1173.3,227c0,238.5,103.9,217.3-1109.8,221.2C2171.6-1017.1,1675.3-1017.1,1638.8-1021z"/><path d="M5524.1-1621.1c-15.4-7.7-136.6-232.7-269.3-498.2c-132.7-265.4-244.3-482.8-250.1-482.8s-59.6,100-121.2,221.2c-80.8,165.4-123.1,227-157.7,240.4c-96.2,36.6-136.6-1.9-253.9-240.4c-61.5-121.2-115.4-221.2-121.2-221.2s-59.6,100-121.2,221.2c-117.3,238.5-157.7,277-253.9,240.4c-34.6-13.5-76.9-75-157.7-240.4c-61.5-121.2-115.4-221.2-121.2-221.2s-59.6,100-121.2,221.2c-117.3,238.5-157.7,277-253.9,240.4c-34.6-13.5-76.9-75-157.7-240.4c-61.5-121.2-115.4-221.2-121.2-221.2s-59.6,100-121.2,221.2c-82.7,169.3-121.2,227-159.6,240.4c-109.6,42.3-130.8,13.5-463.6-644.4c-171.2-338.5-311.6-638.6-313.5-667.4c0-100,115.4-163.5,207.7-113.5c17.3,9.6,140.4,234.6,273.1,500.1c132.7,265.4,244.3,482.8,250,482.8s61.6-101.9,125-227c92.3-180.8,125-227,161.6-230.8c107.7-15.4,132.7,7.7,246.2,236.6c61.5,121.2,115.4,221.2,121.2,221.2s61.6-101.9,125-227c92.3-180.8,125-227,161.6-230.8c107.7-15.4,132.7,7.7,246.2,236.6c61.5,121.2,115.4,221.2,121.2,221.2s61.6-101.9,125-227l115.4-225h86.6h86.6l115.4,225c63.5,125,119.3,227,125,227s61.6-101.9,125-227l115.4-225h86.6h86.6l321.2,634.7c177,350.1,321.2,654,323.1,679C5737.6-1632.6,5608.8-1569.2,5524.1-1621.1z"/></g></g>
</svg>