<svg id="Capa_1" data-name="Capa 1" xmlns="http://www.w3.org/2000/svg" xmlns:xlink="http://www.w3.org/1999/xlink" viewBox="0 0 465.31 56.6"><defs><style>.cls-1{fill:url(#Degradado_sin_nombre_35);}.cls-2{fill:url(#Degradado_sin_nombre_35-2);}.cls-3{fill:url(#Degradado_sin_nombre_35-3);}.cls-4{fill:url(#Degradado_sin_nombre_35-4);}.cls-5{fill:url(#Degradado_sin_nombre_35-5);}.cls-6{fill:url(#Degradado_sin_nombre_35-6);}.cls-7{fill:url(#Degradado_sin_nombre_35-7);}</style><linearGradient id="Degradado_sin_nombre_35" x1="-12.71" y1="27.39" x2="465.88" y2="23.51" gradientUnits="userSpaceOnUse"><stop offset="0" stop-color="#35a8e0"/><stop offset="1" stop-color="#2dab66"/></linearGradient><linearGradient id="Degradado_sin_nombre_35-2" x1="-12.7" y1="29.14" x2="465.89" y2="25.26" xlink:href="#Degradado_sin_nombre_35"/><linearGradient id="Degradado_sin_nombre_35-3" x1="-12.7" y1="28.56" x2="465.89" y2="24.68" xlink:href="#Degradado_sin_nombre_35"/><linearGradient id="Degradado_sin_nombre_35-4" x1="-12.69" y1="30.23" x2="465.9" y2="26.35" xlink:href="#Degradado_sin_nombre_35"/><linearGradient id="Degradado_sin_nombre_35-5" x1="-12.7" y1="29.46" x2="465.89" y2="25.58" xlink:href="#Degradado_sin_nombre_35"/><linearGradient id="Degradado_sin_nombre_35-6" x1="-12.68" y1="31.2" x2="465.91" y2="27.32" xlink:href="#Degradado_sin_nombre_35"/><linearGradient id="Degradado_sin_nombre_35-7" x1="-12.69" y1="30.62" x2="465.9" y2="26.75" xlink:href="#Degradado_sin_nombre_35"/></defs><path class="cls-1" d="M38.59,3.47A25.92,25.92,0,0,1,48,12.83a24.85,24.85,0,0,1,3.47,12.82V54h-18V25.65a7.7,7.7,0,0,0-7.7-7.7,7.72,7.72,0,0,0-7.71,7.7V54H0V25.65A24.85,24.85,0,0,1,3.47,12.83a25.83,25.83,0,0,1,9.41-9.36A25.18,25.18,0,0,1,25.77,0,24.82,24.82,0,0,1,38.59,3.47Z"/><path class="cls-2" d="M119,28.3a27.64,27.64,0,0,1-3.8,14.2,28.34,28.34,0,0,1-10.3,10.3,28.43,28.43,0,0,1-28.4,0,28.26,28.26,0,0,1-10.3-10.3,27.64,27.64,0,0,1-3.8-14.2,27.7,27.7,0,0,1,3.8-14.21A28.16,28.16,0,0,1,76.53,3.8a28.43,28.43,0,0,1,28.4,0,28.23,28.23,0,0,1,10.3,10.29A27.7,27.7,0,0,1,119,28.3ZM90.73,18.06A10.14,10.14,0,0,0,80.49,28.3a10.08,10.08,0,0,0,3,7.32,10.24,10.24,0,0,0,14.54,0,10.08,10.08,0,0,0,3-7.32A10.14,10.14,0,0,0,90.73,18.06Z"/><path class="cls-3" d="M198.14,3.3A25,25,0,0,1,207,12.17a23.58,23.58,0,0,1,3.3,12.27V54H192.25V24.44a6.74,6.74,0,0,0-1.82-4.79,6.4,6.4,0,0,0-9.14,0,6.74,6.74,0,0,0-1.81,4.79V54H161.42V24.44a6.66,6.66,0,0,0-1.87-4.79,6.21,6.21,0,0,0-4.63-1.92,6,6,0,0,0-4.57,1.92,6.74,6.74,0,0,0-1.82,4.79V54H130.59V24.44a23.58,23.58,0,0,1,3.3-12.27,25.1,25.1,0,0,1,8.86-8.87A23.62,23.62,0,0,1,155,0a24.24,24.24,0,0,1,8.26,1.43,23.85,23.85,0,0,1,7.16,4.08,23.68,23.68,0,0,1,7.15-4.08A24.28,24.28,0,0,1,185.86,0,23.62,23.62,0,0,1,198.14,3.3Z"/><path class="cls-4" d="M241.69,2.53H223.63V54h18.06Z"/><path class="cls-5" d="M293.6,3.47A25.92,25.92,0,0,1,303,12.83a24.85,24.85,0,0,1,3.47,12.82V54H288.48V25.65a7.71,7.71,0,0,0-15.41,0V54H255V25.65a24.75,24.75,0,0,1,3.47-12.82,25.83,25.83,0,0,1,9.41-9.36A25.14,25.14,0,0,1,280.77,0,24.86,24.86,0,0,1,293.6,3.47Z"/><path class="cls-6" d="M374,28.3a27.64,27.64,0,0,1-3.8,14.2,28.41,28.41,0,0,1-10.3,10.3,28.45,28.45,0,0,1-28.41,0,28.31,28.31,0,0,1-10.29-10.3,27.64,27.64,0,0,1-3.8-14.2,27.7,27.7,0,0,1,3.8-14.21A28.21,28.21,0,0,1,331.53,3.8a28.45,28.45,0,0,1,28.41,0,28.31,28.31,0,0,1,10.3,10.29A27.7,27.7,0,0,1,374,28.3Zm-28.3-10.24A10.14,10.14,0,0,0,335.5,28.3a10.08,10.08,0,0,0,3,7.32,10.22,10.22,0,0,0,14.53,0,10,10,0,0,0,3-7.32,10.16,10.16,0,0,0-10.24-10.24Z"/><path class="cls-7" d="M453.15,3.3A25.1,25.1,0,0,1,462,12.17a23.58,23.58,0,0,1,3.3,12.27V54H447.26V24.44a6.74,6.74,0,0,0-1.82-4.79,6.4,6.4,0,0,0-9.14,0,6.74,6.74,0,0,0-1.82,4.79V54H416.43V24.44a6.66,6.66,0,0,0-1.87-4.79,6.21,6.21,0,0,0-4.63-1.92,6,6,0,0,0-4.57,1.92,6.74,6.74,0,0,0-1.82,4.79V54H385.6V24.44a23.58,23.58,0,0,1,3.3-12.27,25.1,25.1,0,0,1,8.86-8.87A23.62,23.62,0,0,1,410,0a24.24,24.24,0,0,1,8.26,1.43,23.85,23.85,0,0,1,7.16,4.08,23.68,23.68,0,0,1,7.15-4.08A24.28,24.28,0,0,1,440.87,0,23.62,23.62,0,0,1,453.15,3.3Z"/></svg>